<?xml version="1.0" encoding="UTF-8"?>
<!DOCTYPE svg PUBLIC "-//W3C//DTD SVG 1.1//EN" "http://www.w3.org/Graphics/SVG/1.1/DTD/svg11.dtd">
<!-- Creator: CorelDRAW X6 -->
<svg xmlns="http://www.w3.org/2000/svg" xml:space="preserve" width="33.1367mm" height="28.2564mm" version="1.1" style="shape-rendering:geometricPrecision; text-rendering:geometricPrecision; image-rendering:optimizeQuality; fill-rule:evenodd; clip-rule:evenodd"
viewBox="0 0 3314 2826"
 xmlns:xlink="http://www.w3.org/1999/xlink">
 <defs>
  <style type="text/css">
   <![CDATA[
    .fil0 {fill:#51AE3A}
   ]]>
  </style>
 </defs>
 <g id="Слой_x0020_1">
  <metadata id="CorelCorpID_0Corel-Layer"/>
  <g id="_646954656">
   <path class="fil0" d="M1413 0c-780,0 -1413,633 -1413,1413 0,780 633,1413 1413,1413 290,0 559,-87 784,-237l-297 -215c-22,-16 -37,-38 -45,-61 -60,-147 -43,-241 16,-303 61,-63 146,-70 236,-60 25,3 48,13 66,28l286 206 350 -544c12,-74 18,-149 18,-226 0,-780 -632,-1413 -1413,-1413zm385 1958c-70,78 -170,124 -301,138l0 200 -167 0 0 -199c-219,-22 -354,-150 -407,-381l259 -67c24,146 103,219 238,219 63,0 110,-16 139,-47 30,-31 44,-69 44,-113 0,-46 -15,-80 -44,-104 -30,-24 -96,-53 -198,-90 -92,-32 -164,-63 -216,-95 -52,-31 -94,-75 -126,-131 -32,-56 -48,-122 -48,-196 0,-98 29,-186 87,-264 58,-78 148,-126 272,-143l0 -154 167 0 0 154c187,22 308,128 363,317l-230 94c-45,-130 -114,-195 -209,-195 -47,0 -85,14 -114,43 -29,29 -43,64 -43,105 0,42 14,74 41,97 27,22 87,50 177,83 99,36 177,71 234,103 57,32 102,77 135,134 34,57 51,123 51,199 0,117 -35,214 -104,292z"/>
   <path class="fil0" d="M2092 2073l377 271c14,9 30,6 39,-8l601 -935 6 -1c18,-27 52,-33 79,-16l95 63c27,18 34,52 16,79l-717 1116c-9,13 -19,21 -36,25l-1 0 -1 0c-16,3 -29,0 -42,-9l-535 -387c-82,-194 8,-212 119,-199z"/>
  </g>
 </g>
</svg>
