<?xml version="1.0" encoding="UTF-8"?>
<!DOCTYPE svg PUBLIC "-//W3C//DTD SVG 1.1//EN" "http://www.w3.org/Graphics/SVG/1.1/DTD/svg11.dtd">
<!-- Creator: CorelDRAW X6 -->
<svg xmlns="http://www.w3.org/2000/svg" xml:space="preserve" width="30mm" height="30.8476mm" version="1.1" style="shape-rendering:geometricPrecision; text-rendering:geometricPrecision; image-rendering:optimizeQuality; fill-rule:evenodd; clip-rule:evenodd"
viewBox="0 0 3111 3199"
 xmlns:xlink="http://www.w3.org/1999/xlink">
 <defs>
  <style type="text/css">
   <![CDATA[
    .fil0 {fill:#51AE3A}
   ]]>
  </style>
 </defs>
 <g id="Слой_x0020_1">
  <metadata id="CorelCorpID_0Corel-Layer"/>
  <path class="fil0" d="M2405 1696l0 -1439 -2147 0 0 2684 988 0c71,0 129,58 129,129 0,71 -58,129 -129,129l-1116 0c-71,0 -129,-58 -129,-129l0 -2941c0,-71 58,-129 129,-129l2405 0c71,0 129,58 129,129l0 1567c0,71 -58,129 -129,129 -71,0 -129,-58 -129,-129zm663 313c-54,-47 -135,-43 -182,11l-706 786 -354 -341c-52,-49 -133,-47 -183,4 -49,52 -47,133 4,182l451 434c24,24 56,36 90,36l4 0c34,-2 69,-17 90,-43l794 -885c49,-56 45,-137 -9,-185zm-1136 -1258l-1159 0c-71,0 -129,58 -129,129 0,71 58,129 129,129l1159 0c71,0 129,-58 129,-129 0,-71 -58,-129 -129,-129zm129 837c0,-71 -58,-129 -129,-129l-1159 0c-71,0 -129,58 -129,129 0,71 58,129 129,129l1159 0c71,0 129,-58 129,-129zm-1288 558c-71,0 -129,58 -129,129 0,71 58,129 129,129l344 0c71,0 129,-58 129,-129 0,-71 -58,-129 -129,-129l-344 0z"/>
 </g>
</svg>
