<?xml version="1.0" encoding="UTF-8"?>
<!DOCTYPE svg PUBLIC "-//W3C//DTD SVG 1.1//EN" "http://www.w3.org/Graphics/SVG/1.1/DTD/svg11.dtd">
<!-- Creator: CorelDRAW X6 -->
<svg xmlns="http://www.w3.org/2000/svg" xml:space="preserve" width="25.7mm" height="30mm" version="1.1" style="shape-rendering:geometricPrecision; text-rendering:geometricPrecision; image-rendering:optimizeQuality; fill-rule:evenodd; clip-rule:evenodd"
viewBox="0 0 2570 3000"
 xmlns:xlink="http://www.w3.org/1999/xlink">
 <defs>
  <style type="text/css">
   <![CDATA[
    .fil0 {fill:#51AE3A}
   ]]>
  </style>
 </defs>
 <g id="Слой_x0020_1">
  <metadata id="CorelCorpID_0Corel-Layer"/>
  <g id="_646948544">
   <path class="fil0" d="M755 1511c417,0 755,-338 755,-755 0,-417 -338,-756 -755,-756 -417,0 -755,338 -755,755 0,417 338,756 755,756zm-264 -457c7,-25 14,-49 21,-74 9,-29 17,-32 43,-18 45,23 93,36 142,43 32,4 64,1 93,-13 56,-24 64,-89 17,-128 -16,-13 -34,-23 -53,-31 -49,-21 -99,-37 -146,-65 -74,-44 -122,-106 -116,-197 6,-102 64,-167 158,-201 39,-14 39,-14 39,-54l0 -41c1,-31 6,-36 36,-37l28 0c65,0 65,0 65,65 0,46 0,46 46,53 35,6 68,16 101,30 18,8 24,21 19,39 -8,28 -16,56 -25,84 -9,26 -17,30 -42,18 -51,-24 -104,-35 -160,-32 -15,1 -29,3 -42,9 -48,21 -56,74 -15,107 21,17 44,29 69,39 43,18 86,35 127,57 129,72 164,234 73,345 -33,40 -76,67 -126,81 -22,6 -32,18 -31,40 1,22 0,44 0,67 0,20 -10,31 -30,31 -24,1 -48,1 -72,0 -21,-1 -31,-12 -31,-33 0,-16 0,-33 -1,-49 -1,-36 -1,-37 -36,-43 -44,-7 -87,-17 -128,-37 -31,-14 -34,-23 -25,-56z"/>
   <path class="fil0" d="M2449 1574l-88 0c-58,-178 -172,-336 -324,-459 0,-6 -1,-12 -3,-17 -32,-112 8,-214 53,-287 32,-51 -9,-117 -69,-109 -134,17 -227,66 -291,122 -44,38 -75,89 -89,146 -96,399 -456,696 -884,696 -208,0 -399,-70 -552,-188 -53,115 -82,241 -82,373 0,71 9,141 25,207 0,0 0,1 1,3 17,69 43,136 75,199 43,93 106,202 192,290 124,128 146,287 149,356l0 34c2,34 31,61 65,61l395 0c36,0 65,-29 65,-65l0 -98c57,8 116,12 176,12 47,0 92,-3 138,-7l0 93c0,36 29,65 65,65l396 0c36,0 65,-29 65,-65l0 -98c1,-33 12,-162 134,-272l13 -11c1,-1 3,-2 4,-3 136,-121 237,-272 289,-441l83 0c66,0 120,-54 120,-120l0 -296c-1,-66 -55,-120 -121,-120zm-494 21c-54,0 -98,-44 -98,-98 0,-54 44,-98 98,-98 54,0 98,44 98,98 0,54 -44,98 -98,98z"/>
  </g>
 </g>
</svg>
