<?xml version="1.0" encoding="UTF-8"?>
<!DOCTYPE svg PUBLIC "-//W3C//DTD SVG 1.1//EN" "http://www.w3.org/Graphics/SVG/1.1/DTD/svg11.dtd">
<!-- Creator: CorelDRAW X6 -->
<svg xmlns="http://www.w3.org/2000/svg" xml:space="preserve" width="17.4697mm" height="29.7365mm" version="1.1" style="shape-rendering:geometricPrecision; text-rendering:geometricPrecision; image-rendering:optimizeQuality; fill-rule:evenodd; clip-rule:evenodd"
viewBox="0 0 1747 2974"
 xmlns:xlink="http://www.w3.org/1999/xlink">
 <defs>
  <style type="text/css">
   <![CDATA[
    .fil0 {fill:#51AE3A;fill-opacity:0.501961}
   ]]>
  </style>
 </defs>
 <g id="Слой_x0020_1">
  <metadata id="CorelCorpID_0Corel-Layer"/>
  <path class="fil0" d="M0 260c0,-44 17,-84 47,-115l97 -97c31,-31 71,-48 115,-48 44,0 84,17 115,48l1325 1325c31,31 48,72 47,115 0,44 -17,85 -47,116l-1323 1323c-31,31 -71,48 -115,48 -44,0 -84,-17 -115,-48l-97 -97c-63,-63 -63,-167 0,-230l1111 -1111 -1112 -1112c-31,-31 -47,-71 -47,-115z"/>
 </g>
</svg>
